<svg width="72" height="72" viewBox="0 0 72 72" fill="none" xmlns="http://www.w3.org/2000/svg">
<path d="M0 14C0 6.26803 6.26801 0 14 0H58.0007C65.7326 0 72.0006 6.26801 72.0006 14V58.0006C72.0006 65.7326 65.7326 72.0006 58.0006 72.0006H14C6.268 72.0006 0 65.7326 0 58.0006V14Z" fill="#E10B0A" fill-opacity="0.08"/>
<path d="M39.833 21.2354C40.6813 21.204 41.547 21.298 42.4033 21.5264L52.7539 24.2861C53.6103 24.5146 54.4072 24.8637 55.126 25.3135V25.3145C56.1988 25.985 57.108 26.8847 57.7871 27.9482C58.3787 28.875 58.7944 29.924 58.9941 31.0508L59.0664 31.5381L59.6035 36.0137L59.9062 38.5381L59.9512 38.9082L60.2539 39.127C60.9932 39.6583 61.5564 40.396 61.8721 41.2461C62.1442 41.9793 62.227 42.7884 62.0752 43.6035L61.9961 43.9531L60.9482 47.8467C60.7275 48.6667 60.2862 49.3654 59.7041 49.915C59.5094 50.0984 59.2999 50.2655 59.0771 50.4141L58.8115 50.5918L58.7275 50.9004L57.5479 55.2871V55.2881C57.4823 55.5325 57.3695 55.7512 57.2227 55.9395C56.7786 56.5065 56.0208 56.7844 55.2803 56.5869L52.6729 55.8916C51.6841 55.6281 51.1026 54.6193 51.3652 53.6426L52.0635 51.0469L52.2852 50.2236L51.4619 50.0049L30.5977 44.4395L29.7783 44.2207L29.5576 45.04L28.8594 47.6357C28.5965 48.6132 27.5834 49.2002 26.5928 48.9365L23.9834 48.2402C23.2438 48.0425 22.73 47.4265 22.6309 46.7178C22.6063 46.5408 22.6079 46.3583 22.6377 46.1748L22.6768 45.9912L23.8574 41.6055L23.9404 41.2949L23.7979 41.0078C23.7091 40.8284 23.6326 40.6431 23.5674 40.4541L23.5059 40.2637C23.2782 39.4995 23.2471 38.6752 23.4678 37.8555L24.5156 33.9609C24.8918 32.5648 25.8869 31.5022 27.1367 30.9785C27.5563 30.8025 28 30.6903 28.4531 30.6445L28.8232 30.6064L29.0479 30.3096L30.5771 28.2744L33.29 24.666C33.5559 24.3124 33.8429 23.9844 34.1494 23.6846L34.1504 23.6826C34.7649 23.0794 35.4585 22.5795 36.2031 22.1924H36.2041C36.577 21.9984 36.9623 21.832 37.3574 21.6963H37.3584C38.1509 21.4229 38.9846 21.2667 39.833 21.2354ZM56.8643 40.3164C56.283 40.1614 55.6461 40.2172 55.0645 40.3613C54.4714 40.5083 53.8672 40.7636 53.3145 41.0801C52.7617 41.3966 52.2361 41.7881 51.8105 42.2246C51.3936 42.6524 51.0235 43.1732 50.8672 43.7539C50.6976 44.3845 50.8141 44.9687 51.166 45.4434C51.4843 45.8726 51.9499 46.1506 52.377 46.3438C53.2093 46.7201 54.3407 46.9491 55.0332 47.1338C56.0005 47.3917 56.9575 47.3003 57.7568 46.8428C58.5568 46.3847 59.118 45.606 59.3779 44.6416V44.6406C59.6373 43.6764 59.5428 42.7221 59.0791 41.9258C58.6157 41.13 57.8317 40.5744 56.8643 40.3164ZM23.9131 20.7832C24.4433 21.5757 25.5427 21.7369 26.2793 21.1348H26.2803L31.1885 17.1123L30.3271 21.3633C30.1453 21.5682 29.9504 21.7916 29.7686 22.0332V22.0342L27.0557 25.6426L26.3232 26.6162C23.4101 27.4983 21.0722 29.8322 20.2666 32.8242L19.2188 36.7188C18.9759 37.6223 18.9004 38.5444 18.9531 39.4512L16.5146 41.4502L17.7686 35.2539C17.9587 34.3143 17.2903 33.4234 16.3408 33.333H16.3418L10.0244 32.7227L15.3076 29.2285V29.2275C16.1034 28.7001 16.2699 27.6001 15.6611 26.8623L15.6602 26.8613L11.6289 21.9844L17.8545 23.2324C18.7879 23.4196 19.6861 22.7626 19.7793 21.8096L20.3916 15.5107L23.9131 20.7832ZM30.7842 33.3604C29.8169 33.1024 28.8599 33.1937 28.0605 33.6514C27.2606 34.1094 26.6994 34.8881 26.4395 35.8525C26.1794 36.8174 26.2735 37.7729 26.7373 38.5693C27.1718 39.3153 27.8889 39.8495 28.7734 40.126L28.9521 40.1777C29.6446 40.3624 30.7397 40.728 31.6494 40.8164C32.1163 40.8618 32.6583 40.8515 33.1484 40.6387C33.6893 40.4036 34.0823 39.9581 34.252 39.3281C34.4086 38.747 34.3504 38.1111 34.2041 37.5322C34.0548 36.9418 33.7965 36.3406 33.4766 35.791C33.1565 35.2412 32.7605 34.7187 32.3203 34.2959C31.9425 33.933 31.4947 33.6072 30.999 33.4277L30.7842 33.3604ZM41.4434 25.0732C40.4983 24.8213 39.4989 24.8572 38.5742 25.1758C37.6494 25.4945 36.8411 26.0823 36.2539 26.8633L33.541 30.4717L32.7832 31.4795L34.001 31.8037L48.5137 35.6738L54.8662 37.3691L56.0791 37.6924L55.9297 36.4463L55.3926 31.9707C55.3333 31.4752 55.1991 31.0009 55.002 30.5605L54.8838 30.3164C54.2624 29.1149 53.1544 28.1968 51.7939 27.834L41.4434 25.0732Z" stroke="#E10B0A" stroke-width="1.7"/>
</svg>
