<svg width="73" height="73" viewBox="0 0 73 73" fill="none" xmlns="http://www.w3.org/2000/svg">
<path d="M0 14C0 6.26803 6.26801 0 14 0H58.0319C65.7639 0 72.0319 6.26801 72.0319 14V58.0279C72.0319 65.7599 65.7639 72.028 58.0319 72.028H14C6.268 72.028 0 65.7599 0 58.028V14Z" fill="#E10B0A" fill-opacity="0.08"/>
<path d="M36.036 30.0278V38.0278M36.036 46.0278H36.056M55.496 48.0278L39.496 20.0278C39.1471 19.4122 38.6412 18.9002 38.0298 18.5439C37.4185 18.1877 36.7236 18 36.016 18C35.3084 18 34.6135 18.1877 34.0021 18.5439C33.3908 18.9002 32.8849 19.4122 32.536 20.0278L16.536 48.0278C16.1834 48.6385 15.9984 49.3316 16 50.0368C16.0016 50.742 16.1895 51.4343 16.5449 52.0434C16.9002 52.6526 17.4103 53.157 18.0234 53.5055C18.6365 53.8539 19.3308 54.0341 20.036 54.0278H52.036C52.7378 54.0271 53.4271 53.8417 54.0346 53.4904C54.6421 53.139 55.1464 52.634 55.497 52.026C55.8476 51.4181 56.0321 50.7286 56.0319 50.0268C56.0317 49.325 55.8469 48.6356 55.496 48.0278Z" stroke="#E10B0A" stroke-width="2" stroke-linecap="round" stroke-linejoin="round"/>
</svg>
