<svg width="56" height="56" viewBox="0 0 56 56" fill="none" xmlns="http://www.w3.org/2000/svg">
<rect width="56" height="56" rx="16" fill="#E10B0A" fill-opacity="0.08"/>
<path d="M26.875 40.5H20.5C19.837 40.5 19.2011 40.2366 18.7322 39.7678C18.2634 39.2989 18 38.663 18 38V18C18 17.337 18.2634 16.7011 18.7322 16.2322C19.2011 15.7634 19.837 15.5 20.5 15.5H30.5C30.8961 15.499 31.2885 15.5765 31.6545 15.728C32.0205 15.8795 32.3529 16.1019 32.6325 16.3825L37.1187 20.8675C37.3991 21.1472 37.6213 21.4796 37.7726 21.8456C37.9238 22.2117 38.0011 22.604 38 23V27.0625" stroke="#E10B0A" stroke-width="2" stroke-linecap="round" stroke-linejoin="round"/>
<path d="M30.5 15.5V21.75C30.5 22.0815 30.6317 22.3995 30.8661 22.6339C31.1005 22.8683 31.4185 23 31.75 23H38M39.25 40.5L35.65 36.9" stroke="#E10B0A" stroke-width="2" stroke-linecap="round" stroke-linejoin="round"/>
<path d="M33 38C35.0711 38 36.75 36.3211 36.75 34.25C36.75 32.1789 35.0711 30.5 33 30.5C30.9289 30.5 29.25 32.1789 29.25 34.25C29.25 36.3211 30.9289 38 33 38Z" stroke="#E10B0A" stroke-width="2" stroke-linecap="round" stroke-linejoin="round"/>
</svg>
