<svg width="56" height="56" viewBox="0 0 56 56" fill="none" xmlns="http://www.w3.org/2000/svg">
<rect width="56" height="56" rx="16" fill="#E10B0A" fill-opacity="0.08"/>
<path d="M38 29.2501C38 35.5001 33.625 38.6251 28.425 40.4376C28.1527 40.5298 27.8569 40.5254 27.5875 40.4251C22.375 38.6251 18 35.5001 18 29.2501V20.5001C18 20.1686 18.1317 19.8506 18.3661 19.6162C18.6005 19.3818 18.9185 19.2501 19.25 19.2501C21.75 19.2501 24.875 17.7501 27.05 15.8501C27.3148 15.6238 27.6517 15.4995 28 15.4995C28.3483 15.4995 28.6852 15.6238 28.95 15.8501C31.1375 17.7626 34.25 19.2501 36.75 19.2501C37.0815 19.2501 37.3995 19.3818 37.6339 19.6162C37.8683 19.8506 38 20.1686 38 20.5001V29.2501Z" stroke="#E10B0A" stroke-width="2" stroke-linecap="round" stroke-linejoin="round"/>
<path d="M24.25 28L26.75 30.5L31.75 25.5" stroke="#E10B0A" stroke-width="2" stroke-linecap="round" stroke-linejoin="round"/>
</svg>
