<svg width="72" height="72" viewBox="0 0 72 72" fill="none" xmlns="http://www.w3.org/2000/svg">
<path d="M0 14C0 6.26801 6.26801 0 14 0H58C65.732 0 72 6.26801 72 14V58C72 65.732 65.732 72 58 72H14C6.26801 72 0 65.732 0 58V14Z" fill="#E10B0A" fill-opacity="0.08"/>
<path d="M21.8584 21.858L50.1404 50.142" stroke="#E10B0A" stroke-width="2" stroke-linecap="round" stroke-linejoin="round"/>
<path d="M36 56C47.0457 56 56 47.0457 56 36C56 24.9543 47.0457 16 36 16C24.9543 16 16 24.9543 16 36C16 47.0457 24.9543 56 36 56Z" stroke="#E10B0A" stroke-width="2" stroke-linecap="round" stroke-linejoin="round"/>
</svg>
