<svg width="56" height="56" viewBox="0 0 56 56" fill="none" xmlns="http://www.w3.org/2000/svg">
<rect width="56" height="56" rx="16" fill="#E10B0A" fill-opacity="0.08"/>
<path d="M28 43C36.2843 43 43 36.2843 43 28C43 19.7157 36.2843 13 28 13C19.7157 13 13 19.7157 13 28C13 36.2843 19.7157 43 28 43Z" stroke="#E10B0A" stroke-width="2" stroke-linecap="round" stroke-linejoin="round"/>
<path d="M28 37C32.9706 37 37 32.9706 37 28C37 23.0294 32.9706 19 28 19C23.0294 19 19 23.0294 19 28C19 32.9706 23.0294 37 28 37Z" stroke="#E10B0A" stroke-width="2" stroke-linecap="round" stroke-linejoin="round"/>
<path d="M28 31C29.6569 31 31 29.6569 31 28C31 26.3431 29.6569 25 28 25C26.3431 25 25 26.3431 25 28C25 29.6569 26.3431 31 28 31Z" stroke="#E10B0A" stroke-width="2" stroke-linecap="round" stroke-linejoin="round"/>
</svg>
