<svg width="72" height="72" viewBox="0 0 72 72" fill="none" xmlns="http://www.w3.org/2000/svg">
<path d="M0 14C0 6.26801 6.26801 0 14 0H58C65.732 0 72 6.26801 72 14V58C72 65.732 65.732 72 58 72H14C6.26801 72 0 65.732 0 58V14Z" fill="#E10B0A" fill-opacity="0.08"/>
<path d="M40 48V24C40 22.9391 39.5786 21.9217 38.8284 21.1716C38.0783 20.4214 37.0609 20 36 20H20C18.9391 20 17.9217 20.4214 17.1716 21.1716C16.4214 21.9217 16 22.9391 16 24V46C16 46.5304 16.2107 47.0391 16.5858 47.4142C16.9609 47.7893 17.4696 48 18 48H22M42 48H30M50 48H54C54.5304 48 55.0391 47.7893 55.4142 47.4142C55.7893 47.0391 56 46.5304 56 46V38.7C55.9992 38.2461 55.844 37.806 55.56 37.452L48.6 28.752C48.4129 28.5178 48.1756 28.3286 47.9056 28.1984C47.6356 28.0682 47.3398 28.0004 47.04 28H40" stroke="#E10B0A" stroke-width="2" stroke-linecap="round" stroke-linejoin="round"/>
<path d="M46 52C48.2091 52 50 50.2091 50 48C50 45.7909 48.2091 44 46 44C43.7909 44 42 45.7909 42 48C42 50.2091 43.7909 52 46 52Z" stroke="#E10B0A" stroke-width="2" stroke-linecap="round" stroke-linejoin="round"/>
<path d="M26 52C28.2091 52 30 50.2091 30 48C30 45.7909 28.2091 44 26 44C23.7909 44 22 45.7909 22 48C22 50.2091 23.7909 52 26 52Z" stroke="#E10B0A" stroke-width="2" stroke-linecap="round" stroke-linejoin="round"/>
</svg>
