<svg width="72" height="72" viewBox="0 0 72 72" fill="none" xmlns="http://www.w3.org/2000/svg">
<path d="M0 14C0 6.26802 6.26801 0 14 0H58C65.732 0 72 6.26801 72 14V58.0067C72 65.7387 65.732 72.0067 58 72.0067H14C6.26801 72.0067 0 65.7387 0 58.0067V14Z" fill="#E10B0A" fill-opacity="0.08"/>
<path d="M16 16.0009L56 56.0009M22 22.0009C21.4696 22.0009 20.9609 22.2116 20.5858 22.5867C20.2107 22.9618 20 23.4705 20 24.0009V38.0009C20 48.0009 27 53.0009 35.34 55.8809C35.7711 56.0415 36.2443 56.0485 36.68 55.9009C41.38 54.2609 45.64 51.9609 48.48 48.4809M30.618 19.3049C31.9906 18.5166 33.2839 17.5977 34.48 16.5609C34.9037 16.1989 35.4427 16 36 16C36.5573 16 37.0963 16.1989 37.52 16.5609C41.02 19.6209 46 22.0009 50 22.0009C50.5304 22.0009 51.0391 22.2116 51.4142 22.5867C51.7893 22.9618 52 23.4705 52 24.0009V38.0009C52.0001 38.8461 51.9467 39.6905 51.84 40.5289" stroke="#E10B0A" stroke-width="2" stroke-linecap="round" stroke-linejoin="round"/>
</svg>
