<svg width="72" height="72" viewBox="0 0 72 72" fill="none" xmlns="http://www.w3.org/2000/svg">
<path d="M0 14C0 6.26801 6.26801 0 14 0H58C65.732 0 72 6.26801 72 14V58C72 65.732 65.732 72 58 72H14C6.26801 72 0 65.732 0 58V14Z" fill="#FDECEC"/>
<path d="M50 18H22C19.7909 18 18 19.7909 18 22V50C18 52.2091 19.7909 54 22 54H50C52.2091 54 54 52.2091 54 50V22C54 19.7909 52.2091 18 50 18Z" stroke="#E10B0A" stroke-width="2" stroke-linecap="round" stroke-linejoin="round"/>
<path d="M46 36H42L38 46L34 26L30 36H26" stroke="#E10B0A" stroke-width="2" stroke-linecap="round" stroke-linejoin="round"/>
</svg>
