<svg width="72" height="72" viewBox="0 0 72 72" fill="none" xmlns="http://www.w3.org/2000/svg">
<path d="M0 14C0 6.26801 6.26801 0 14 0H58C65.732 0 72 6.26801 72 14V58C72 65.732 65.732 72 58 72H14C6.26801 72 0 65.732 0 58V14Z" fill="#E10B0A" fill-opacity="0.08"/>
<path d="M24 56C22.9391 56 21.9217 55.5786 21.1716 54.8284C20.4214 54.0783 20 53.0609 20 52V20C20 18.9391 20.4214 17.9217 21.1716 17.1716C21.9217 16.4214 22.9391 16 24 16H40C40.6331 15.999 41.2602 16.1232 41.8451 16.3655C42.43 16.6079 42.9611 16.9635 43.408 17.412L50.584 24.588C51.0337 25.035 51.3903 25.5667 51.6334 26.1523C51.8764 26.738 52.001 27.3659 52 28V52C52 53.0609 51.5786 54.0783 50.8284 54.8284C50.0783 55.5786 49.0609 56 48 56H24Z" stroke="#E10B0A" stroke-width="2" stroke-linecap="round" stroke-linejoin="round"/>
<path d="M40 16V26C40 26.5304 40.2107 27.0391 40.5858 27.4142C40.9609 27.7893 41.4696 28 42 28H52M32 30H28M44 38H28M44 46H28" stroke="#E10B0A" stroke-width="2" stroke-linecap="round" stroke-linejoin="round"/>
</svg>
