<svg width="72" height="72" viewBox="0 0 72 72" fill="none" xmlns="http://www.w3.org/2000/svg">
<path d="M0 14C0 6.26801 6.26801 0 14 0H58C65.732 0 72 6.26801 72 14V58C72 65.732 65.732 72 58 72H14C6.26801 72 0 65.732 0 58V14Z" fill="#E10B0A" fill-opacity="0.08"/>
<path d="M46 16H26C23.7909 16 22 17.7909 22 20V52C22 54.2091 23.7909 56 26 56H46C48.2091 56 50 54.2091 50 52V20C50 17.7909 48.2091 16 46 16Z" stroke="#E10B0A" stroke-width="2" stroke-linecap="round" stroke-linejoin="round"/>
<path d="M36 48H36.0183" stroke="#E10B0A" stroke-width="4" stroke-linecap="round" stroke-linejoin="round"/>
</svg>
