<svg width="72" height="72" viewBox="0 0 72 72" fill="none" xmlns="http://www.w3.org/2000/svg">
<path d="M0 14C0 6.26801 6.26801 0 14 0H58C65.732 0 72 6.26801 72 14V58C72 65.732 65.732 72 58 72H14C6.26801 72 0 65.732 0 58V14Z" fill="#E10B0A" fill-opacity="0.08"/>
<path d="M36 23.4C35.0356 23.4 34.1107 23.7793 33.4287 24.4544C32.7468 25.1295 32.3636 26.0452 32.3636 27C32.3636 27.9548 32.7468 28.8705 33.4287 29.5456C34.1107 30.2207 35.0356 30.6 36 30.6C36.9644 30.6 37.8893 30.2207 38.5713 29.5456C39.2532 28.8705 39.6364 27.9548 39.6364 27C39.6364 26.0452 39.2532 25.1295 38.5713 24.4544C37.8893 23.7793 36.9644 23.4 36 23.4ZM36 28.8C35.5178 28.8 35.0553 28.6104 34.7144 28.2728C34.3734 27.9352 34.1818 27.4774 34.1818 27C34.1818 26.5226 34.3734 26.0648 34.7144 25.7272C35.0553 25.3896 35.5178 25.2 36 25.2C36.4822 25.2 36.9447 25.3896 37.2856 25.7272C37.6266 26.0648 37.8182 26.5226 37.8182 27C37.8182 27.4774 37.6266 27.9352 37.2856 28.2728C36.9447 28.6104 36.4822 28.8 36 28.8ZM36 41.4C35.0356 41.4 34.1107 41.7793 33.4287 42.4544C32.7468 43.1295 32.3636 44.0452 32.3636 45C32.3636 45.9548 32.7468 46.8705 33.4287 47.5456C34.1107 48.2207 35.0356 48.6 36 48.6C36.9644 48.6 37.8893 48.2207 38.5713 47.5456C39.2532 46.8705 39.6364 45.9548 39.6364 45C39.6364 44.0452 39.2532 43.1295 38.5713 42.4544C37.8893 41.7793 36.9644 41.4 36 41.4ZM36 46.8C35.5178 46.8 35.0553 46.6104 34.7144 46.2728C34.3734 45.9352 34.1818 45.4774 34.1818 45C34.1818 44.5226 34.3734 44.0648 34.7144 43.7272C35.0553 43.3896 35.5178 43.2 36 43.2C36.4822 43.2 36.9447 43.3896 37.2856 43.7272C37.6266 44.0648 37.8182 44.5226 37.8182 45C37.8182 45.4774 37.6266 45.9352 37.2856 46.2728C36.9447 46.6104 36.4822 46.8 36 46.8ZM56 22.5C56 22.2613 55.9042 22.0324 55.7337 21.8636C55.5632 21.6948 55.332 21.6 55.0909 21.6H46.7436C46.4813 20.5734 45.8813 19.6623 45.0382 19.0105C44.1951 18.3587 43.157 18.0032 42.0873 18H29.9127C28.843 18.0032 27.8049 18.3587 26.9618 19.0105C26.1187 19.6623 25.5187 20.5734 25.2564 21.6H16.9091C16.668 21.6 16.4368 21.6948 16.2663 21.8636C16.0958 22.0324 16 22.2613 16 22.5C16 25.8516 17.6891 28.809 20.2636 30.6H16.9091C16.668 30.6 16.4368 30.6948 16.2663 30.8636C16.0958 31.0324 16 31.2613 16 31.5C16 34.8516 17.6891 37.809 20.2636 39.6H16.9091C16.668 39.6 16.4368 39.6948 16.2663 39.8636C16.0958 40.0324 16 40.2613 16 40.5C16.0024 42.9944 16.9558 45.396 18.6696 47.2244C20.3834 49.0529 22.7313 50.1735 25.2436 50.3622C25.4993 51.3979 26.098 52.319 26.9444 52.9784C27.7907 53.6378 28.8358 53.9975 29.9127 54H42.0873C43.1642 53.9975 44.2093 53.6378 45.0556 52.9784C45.902 52.319 46.5007 51.3979 46.7564 50.3622C49.2687 50.1735 51.6166 49.0529 53.3304 47.2244C55.0442 45.396 55.9976 42.9944 56 40.5C56 40.2613 55.9042 40.0324 55.7337 39.8636C55.5632 39.6948 55.332 39.6 55.0909 39.6H51.7364C53.0529 38.6891 54.1279 37.4771 54.8702 36.0669C55.6125 34.6568 56 33.0901 56 31.5C56 31.2613 55.9042 31.0324 55.7337 30.8636C55.5632 30.6948 55.332 30.6 55.0909 30.6H51.7364C53.0529 29.6891 54.1279 28.4771 54.8702 27.0669C55.6125 25.6568 56 24.0901 56 22.5ZM25.0909 48.5496C23.2465 48.3454 21.5271 47.5265 20.2148 46.2273C18.9025 44.9282 18.0753 43.2259 17.8691 41.4H25.0909V48.5496ZM25.0909 39.5496C23.2465 39.3454 21.5271 38.5265 20.2148 37.2273C18.9025 35.9282 18.0753 34.2259 17.8691 32.4H25.0909V39.5496ZM25.0909 30.5496C23.2465 30.3454 21.5271 29.5265 20.2148 28.2273C18.9025 26.9282 18.0753 25.2259 17.8691 23.4H25.0909V30.5496ZM45.0909 31.5V49.2264C45.0899 50.0148 44.7732 50.7705 44.2101 51.328C43.647 51.8855 42.8836 52.199 42.0873 52.2H29.9127C29.1164 52.199 28.353 51.8855 27.7899 51.328C27.2268 50.7705 26.9101 50.0148 26.9091 49.2264V22.7736C26.9101 21.9852 27.2268 21.2295 27.7899 20.672C28.353 20.1145 29.1164 19.801 29.9127 19.8H42.0873C43.7455 19.8018 45.0891 21.132 45.0909 22.7736V31.5ZM54.1309 41.4C53.9247 43.2259 53.0975 44.9282 51.7852 46.2273C50.4729 47.5265 48.7535 48.3454 46.9091 48.5496V41.4H54.1309ZM54.1309 32.4C53.9247 34.2259 53.0975 35.9282 51.7852 37.2273C50.4729 38.5265 48.7535 39.3454 46.9091 39.5496V32.4H54.1309ZM46.9091 30.5496V23.4H54.1309C53.9247 25.2259 53.0975 26.9282 51.7852 28.2273C50.4729 29.5265 48.7535 30.3454 46.9091 30.5496ZM36 32.4C35.0356 32.4 34.1107 32.7793 33.4287 33.4544C32.7468 34.1295 32.3636 35.0452 32.3636 36C32.3636 36.9548 32.7468 37.8705 33.4287 38.5456C34.1107 39.2207 35.0356 39.6 36 39.6C36.9644 39.6 37.8893 39.2207 38.5713 38.5456C39.2532 37.8705 39.6364 36.9548 39.6364 36C39.6364 35.0452 39.2532 34.1295 38.5713 33.4544C37.8893 32.7793 36.9644 32.4 36 32.4ZM36 37.8C35.5178 37.8 35.0553 37.6104 34.7144 37.2728C34.3734 36.9352 34.1818 36.4774 34.1818 36C34.1818 35.5226 34.3734 35.0648 34.7144 34.7272C35.0553 34.3896 35.5178 34.2 36 34.2C36.4822 34.2 36.9447 34.3896 37.2856 34.7272C37.6266 35.0648 37.8182 35.5226 37.8182 36C37.8182 36.4774 37.6266 36.9352 37.2856 37.2728C36.9447 37.6104 36.4822 37.8 36 37.8Z" fill="#E10B0A"/>
</svg>
